<svg width="21" height="18" viewBox="0 0 21 18" fill="none" xmlns="http://www.w3.org/2000/svg">
<path fill-rule="evenodd" clip-rule="evenodd" d="M14.9835 0C16.5773 0 18.1061 0.63244 19.2341 1.75848C20.3621 2.88452 20.9972 4.41215 21 6.006C21 9.23996 19.8135 10.7835 14.511 14.973L11.7876 17.0869C11.0299 17.675 9.9701 17.675 9.2124 17.0869L6.489 14.973C1.1865 10.7835 0 9.23996 0 6.006C0.00278 4.41215 0.63789 2.88452 1.7659 1.75848C2.89391 0.63244 4.42264 0 6.0165 0C7.64236 0.00772 9.2014 0.6479 10.3635 1.785L10.5 1.91378L10.6365 1.785C11.7986 0.6479 13.3576 0.00772 14.9835 0ZM9.7224 4.00687C9.7414 4.02478 9.7604 4.04268 9.7793 4.06054C10.1839 4.44233 10.816 4.44233 11.2206 4.06054C11.2396 4.04262 11.2586 4.02467 11.2776 4.00669C12.2018 3.13419 13.1791 2.21142 14.4351 2.03933C14.6175 2.01435 14.8022 2.0011 14.9882 2C16.0505 2.00125 17.0692 2.42332 17.8211 3.17393C18.5736 3.9251 18.9975 4.94396 19 6.00713C18.9999 7.29166 18.7885 8.04826 18.1287 8.95166C17.3538 10.0129 15.9465 11.2896 13.2778 13.3984L10.5613 15.5069C10.5252 15.5349 10.4748 15.5349 10.4387 15.5069L7.72213 13.3984C5.05344 11.2896 3.64619 10.0129 2.87123 8.95166C2.21159 8.04836 2.0002 7.29196 2 6.00785C2.00229 4.94442 2.42623 3.92527 3.17888 3.17393C3.9308 2.42332 4.94945 2.00125 6.01177 2C6.19754 2.00109 6.38202 2.01432 6.56414 2.03924C7.82047 2.21115 8.7981 3.13417 9.7224 4.00687Z" fill="#1E53BA"/>
</svg>
